<mxfile host="app.diagrams.net" modified="2023-09-22T07:19:53.420Z" agent="Mozilla/5.0 (Macintosh; Intel Mac OS X 10_15_7) AppleWebKit/605.1.15 (KHTML, like Gecko) Version/16.6 Safari/605.1.15" etag="_5hS1i32mHfQEY80fkrm" version="21.8.0" type="device">
  <diagram name="第 1 页" id="pYm_2EkLI6lQ4lj8E7AL">
    <mxGraphModel dx="1046" dy="856" grid="1" gridSize="10" guides="1" tooltips="1" connect="1" arrows="1" fold="1" page="1" pageScale="1" pageWidth="827" pageHeight="1169" math="0" shadow="0">
      <root>
        <mxCell id="0" />
        <mxCell id="1" parent="0" />
        <mxCell id="cUyVVVKYGetLILxytOfe-98" value="&lt;table border=&quot;0&quot; cellpadding=&quot;0&quot; cellspacing=&quot;0&quot; width=&quot;1072&quot; style=&quot;caret-color: rgb(0, 0, 0); color: rgb(0, 0, 0); font-style: normal; font-variant-caps: normal; font-weight: 400; letter-spacing: normal; text-align: start; text-transform: none; word-spacing: 0px; -webkit-text-stroke-width: 0px; text-decoration: none; border-collapse: collapse; width: 804pt;&quot;&gt;&lt;colgroup&gt;&lt;col width=&quot;76&quot; style=&quot;width: 57pt;&quot;&gt;&lt;col width=&quot;112&quot; style=&quot;width: 84pt;&quot;&gt;&lt;col width=&quot;169&quot; style=&quot;width: 127pt;&quot;&gt;&lt;col width=&quot;119&quot; span=&quot;4&quot; style=&quot;width: 89pt;&quot;&gt;&lt;col width=&quot;100&quot; style=&quot;width: 75pt;&quot;&gt;&lt;col width=&quot;139&quot; style=&quot;width: 104pt;&quot;&gt;&lt;/colgroup&gt;&lt;tbody&gt;&lt;tr height=&quot;47&quot; style=&quot;height: 35.56pt;&quot;&gt;&lt;td height=&quot;47&quot; class=&quot;oa1&quot; width=&quot;76&quot; style=&quot;padding: 3.6pt 7.2pt; color: windowtext; font-size: 18pt; font-weight: 400; font-style: normal; text-decoration: none; font-family: Arial; vertical-align: top; border: 1pt solid black; text-align: center; height: 35.56pt; width: 57pt;&quot;&gt;&lt;p style=&quot;margin-top: 0pt; margin-bottom: 0pt; margin-left: 0in; text-align: center; direction: ltr; unicode-bidi: embed; word-break: normal;&quot;&gt;&lt;span style=&quot;font-size: 18pt; font-family: 等线; color: black; font-weight: bold;&quot;&gt;id&lt;/span&gt;&lt;/p&gt;&lt;/td&gt;&lt;td class=&quot;oa1&quot; width=&quot;112&quot; style=&quot;padding: 3.6pt 7.2pt; color: windowtext; font-size: 18pt; font-weight: 400; font-style: normal; text-decoration: none; font-family: Arial; vertical-align: top; border: 1pt solid black; text-align: center; width: 84pt;&quot;&gt;&lt;p style=&quot;margin-top: 0pt; margin-bottom: 0pt; margin-left: 0in; text-align: center; direction: ltr; unicode-bidi: embed; word-break: normal;&quot;&gt;&lt;span style=&quot;font-size: 18pt; font-family: 等线; color: black; font-weight: bold;&quot;&gt;Account&lt;/span&gt;&lt;/p&gt;&lt;/td&gt;&lt;td class=&quot;oa1&quot; width=&quot;169&quot; style=&quot;padding: 3.6pt 7.2pt; color: windowtext; font-size: 18pt; font-weight: 400; font-style: normal; text-decoration: none; font-family: Arial; vertical-align: top; border: 1pt solid black; text-align: center; width: 127pt;&quot;&gt;&lt;p style=&quot;margin-top: 0pt; margin-bottom: 0pt; margin-left: 0in; text-align: center; direction: ltr; unicode-bidi: embed; word-break: normal;&quot;&gt;&lt;span style=&quot;font-size: 18pt; font-family: 等线; color: black; font-weight: bold;&quot;&gt;Name&lt;/span&gt;&lt;/p&gt;&lt;/td&gt;&lt;td class=&quot;oa1&quot; width=&quot;119&quot; style=&quot;padding: 3.6pt 7.2pt; color: windowtext; font-size: 18pt; font-weight: 400; font-style: normal; text-decoration: none; font-family: Arial; vertical-align: top; border: 1pt solid black; text-align: center; width: 89pt;&quot;&gt;&lt;p style=&quot;margin-top: 0pt; margin-bottom: 0pt; margin-left: 0in; text-align: center; direction: ltr; unicode-bidi: embed; word-break: normal;&quot;&gt;&lt;span style=&quot;font-size: 18pt; font-family: 等线; color: black; font-weight: bold;&quot;&gt;Rep&lt;/span&gt;&lt;/p&gt;&lt;/td&gt;&lt;td class=&quot;oa1&quot; width=&quot;119&quot; style=&quot;padding: 3.6pt 7.2pt; color: windowtext; font-size: 18pt; font-weight: 400; font-style: normal; text-decoration: none; font-family: Arial; vertical-align: top; border: 1pt solid black; text-align: center; width: 89pt;&quot;&gt;&lt;p style=&quot;margin-top: 0pt; margin-bottom: 0pt; margin-left: 0in; text-align: center; direction: ltr; unicode-bidi: embed; word-break: normal;&quot;&gt;&lt;span style=&quot;font-size: 18pt; font-family: 等线; color: black; font-weight: bold;&quot;&gt;Manager&lt;/span&gt;&lt;/p&gt;&lt;/td&gt;&lt;td class=&quot;oa1&quot; width=&quot;119&quot; style=&quot;padding: 3.6pt 7.2pt; color: windowtext; font-size: 18pt; font-weight: 400; font-style: normal; text-decoration: none; font-family: Arial; vertical-align: top; border: 1pt solid black; text-align: center; width: 89pt;&quot;&gt;&lt;p style=&quot;margin-top: 0pt; margin-bottom: 0pt; margin-left: 0in; text-align: center; direction: ltr; unicode-bidi: embed; word-break: normal;&quot;&gt;&lt;span style=&quot;font-size: 18pt; font-family: 等线; color: black; font-weight: bold;&quot;&gt;Product&lt;/span&gt;&lt;/p&gt;&lt;/td&gt;&lt;td class=&quot;oa1&quot; width=&quot;119&quot; style=&quot;padding: 3.6pt 7.2pt; color: windowtext; font-size: 18pt; font-weight: 400; font-style: normal; text-decoration: none; font-family: Arial; vertical-align: top; border: 1pt solid black; text-align: center; width: 89pt;&quot;&gt;&lt;p style=&quot;margin-top: 0pt; margin-bottom: 0pt; margin-left: 0in; text-align: center; direction: ltr; unicode-bidi: embed; word-break: normal;&quot;&gt;&lt;span style=&quot;font-size: 18pt; font-family: 等线; color: black; font-weight: bold;&quot;&gt;Quantity&lt;/span&gt;&lt;/p&gt;&lt;/td&gt;&lt;td class=&quot;oa1&quot; width=&quot;100&quot; style=&quot;padding: 3.6pt 7.2pt; color: windowtext; font-size: 18pt; font-weight: 400; font-style: normal; text-decoration: none; font-family: Arial; vertical-align: top; border: 1pt solid black; text-align: center; width: 75pt;&quot;&gt;&lt;p style=&quot;margin-top: 0pt; margin-bottom: 0pt; margin-left: 0in; text-align: center; direction: ltr; unicode-bidi: embed; word-break: normal;&quot;&gt;&lt;span style=&quot;font-size: 18pt; font-family: 等线; color: black; font-weight: bold;&quot;&gt;Price&lt;/span&gt;&lt;/p&gt;&lt;/td&gt;&lt;td class=&quot;oa1&quot; width=&quot;139&quot; style=&quot;padding: 3.6pt 7.2pt; color: windowtext; font-size: 18pt; font-weight: 400; font-style: normal; text-decoration: none; font-family: Arial; vertical-align: top; border: 1pt solid black; text-align: center; width: 104pt;&quot;&gt;&lt;p style=&quot;margin-top: 0pt; margin-bottom: 0pt; margin-left: 0in; text-align: center; direction: ltr; unicode-bidi: embed; word-break: normal;&quot;&gt;&lt;span style=&quot;font-size: 18pt; font-family: 等线; color: black; font-weight: bold;&quot;&gt;Status&lt;/span&gt;&lt;/p&gt;&lt;/td&gt;&lt;/tr&gt;&lt;tr height=&quot;47&quot; style=&quot;height: 35.56pt;&quot;&gt;&lt;td height=&quot;47&quot; class=&quot;oa1&quot; width=&quot;76&quot; style=&quot;padding: 3.6pt 7.2pt; color: windowtext; font-size: 18pt; font-weight: 400; font-style: normal; text-decoration: none; font-family: Arial; vertical-align: top; border: 1pt solid black; text-align: center; height: 35.56pt; width: 57pt;&quot;&gt;&lt;p style=&quot;margin-top: 0pt; margin-bottom: 0pt; margin-left: 0in; text-align: center; direction: ltr; unicode-bidi: embed; word-break: normal;&quot;&gt;&lt;span style=&quot;font-size: 18pt; font-family: 等线; color: black;&quot;&gt;0&lt;/span&gt;&lt;/p&gt;&lt;/td&gt;&lt;td class=&quot;oa1&quot; width=&quot;112&quot; style=&quot;padding: 3.6pt 7.2pt; color: windowtext; font-size: 18pt; font-weight: 400; font-style: normal; text-decoration: none; font-family: Arial; vertical-align: top; border: 1pt solid black; text-align: center; width: 84pt;&quot;&gt;&lt;p style=&quot;margin-top: 0pt; margin-bottom: 0pt; margin-left: 0in; text-align: center; direction: ltr; unicode-bidi: embed; word-break: normal;&quot;&gt;&lt;span style=&quot;font-size: 18pt; font-family: 等线; color: black;&quot;&gt;714466&lt;/span&gt;&lt;/p&gt;&lt;/td&gt;&lt;td class=&quot;oa1&quot; width=&quot;169&quot; style=&quot;padding: 3.6pt 7.2pt; color: windowtext; font-size: 18pt; font-weight: 400; font-style: normal; text-decoration: none; font-family: Arial; vertical-align: top; border: 1pt solid black; text-align: center; width: 127pt;&quot;&gt;&lt;p style=&quot;margin-top: 0pt; margin-bottom: 0pt; margin-left: 0in; text-align: center; direction: ltr; unicode-bidi: embed; word-break: normal;&quot;&gt;&lt;span style=&quot;font-size: 18pt; font-family: 等线; color: black;&quot;&gt;Trantow&lt;/span&gt;&lt;span style=&quot;font-size: 18pt; font-family: 等线; color: black;&quot;&gt;-Barrows&lt;/span&gt;&lt;/p&gt;&lt;/td&gt;&lt;td class=&quot;oa1&quot; width=&quot;119&quot; style=&quot;padding: 3.6pt 7.2pt; color: windowtext; font-size: 18pt; font-weight: 400; font-style: normal; text-decoration: none; font-family: Arial; vertical-align: top; border: 1pt solid black; text-align: center; width: 89pt;&quot;&gt;&lt;p style=&quot;margin-top: 0pt; margin-bottom: 0pt; margin-left: 0in; text-align: center; direction: ltr; unicode-bidi: embed; word-break: normal;&quot;&gt;&lt;span style=&quot;font-size: 18pt; font-family: 等线; color: black;&quot;&gt;Craig Booker&lt;/span&gt;&lt;/p&gt;&lt;/td&gt;&lt;td class=&quot;oa1&quot; width=&quot;119&quot; style=&quot;padding: 3.6pt 7.2pt; color: windowtext; font-size: 18pt; font-weight: 400; font-style: normal; text-decoration: none; font-family: Arial; vertical-align: top; border: 1pt solid black; text-align: center; width: 89pt;&quot;&gt;&lt;p style=&quot;margin-top: 0pt; margin-bottom: 0pt; margin-left: 0in; text-align: center; direction: ltr; unicode-bidi: embed; word-break: normal;&quot;&gt;&lt;span style=&quot;font-size: 18pt; font-family: 等线; color: black;&quot;&gt;Debra&lt;span class=&quot;Apple-converted-space&quot;&gt;&amp;nbsp;&lt;/span&gt;&lt;/span&gt;&lt;span style=&quot;font-size: 18pt; font-family: 等线; color: black;&quot;&gt;Henly&lt;/span&gt;&lt;/p&gt;&lt;/td&gt;&lt;td class=&quot;oa1&quot; width=&quot;119&quot; style=&quot;padding: 3.6pt 7.2pt; color: windowtext; font-size: 18pt; font-weight: 400; font-style: normal; text-decoration: none; font-family: Arial; vertical-align: top; border: 1pt solid black; text-align: center; width: 89pt;&quot;&gt;&lt;p style=&quot;margin-top: 0pt; margin-bottom: 0pt; margin-left: 0in; text-align: center; direction: ltr; unicode-bidi: embed; word-break: normal;&quot;&gt;&lt;span style=&quot;font-size: 18pt; font-family: 等线; color: black;&quot;&gt;CPU&lt;/span&gt;&lt;/p&gt;&lt;/td&gt;&lt;td class=&quot;oa1&quot; width=&quot;119&quot; style=&quot;padding: 3.6pt 7.2pt; color: windowtext; font-size: 18pt; font-weight: 400; font-style: normal; text-decoration: none; font-family: Arial; vertical-align: top; border: 1pt solid black; text-align: center; width: 89pt;&quot;&gt;&lt;p style=&quot;margin-top: 0pt; margin-bottom: 0pt; margin-left: 0in; text-align: center; direction: ltr; unicode-bidi: embed; word-break: normal;&quot;&gt;&lt;span style=&quot;font-size: 18pt; font-family: 等线; color: black;&quot;&gt;1&lt;/span&gt;&lt;/p&gt;&lt;/td&gt;&lt;td class=&quot;oa1&quot; width=&quot;100&quot; style=&quot;padding: 3.6pt 7.2pt; color: windowtext; font-size: 18pt; font-weight: 400; font-style: normal; text-decoration: none; font-family: Arial; vertical-align: top; border: 1pt solid black; text-align: center; width: 75pt;&quot;&gt;&lt;p style=&quot;margin-top: 0pt; margin-bottom: 0pt; margin-left: 0in; text-align: center; direction: ltr; unicode-bidi: embed; word-break: normal;&quot;&gt;&lt;span style=&quot;font-size: 18pt; font-family: 等线; color: black;&quot;&gt;30000&lt;/span&gt;&lt;/p&gt;&lt;/td&gt;&lt;td class=&quot;oa1&quot; width=&quot;139&quot; style=&quot;padding: 3.6pt 7.2pt; color: windowtext; font-size: 18pt; font-weight: 400; font-style: normal; text-decoration: none; font-family: Arial; vertical-align: top; border: 1pt solid black; text-align: center; width: 104pt;&quot;&gt;&lt;p style=&quot;margin-top: 0pt; margin-bottom: 0pt; margin-left: 0in; text-align: center; direction: ltr; unicode-bidi: embed; word-break: normal;&quot;&gt;&lt;span style=&quot;font-size: 18pt; font-family: 等线; color: black;&quot;&gt;presented&lt;/span&gt;&lt;/p&gt;&lt;/td&gt;&lt;/tr&gt;&lt;tr height=&quot;47&quot; style=&quot;height: 35.56pt;&quot;&gt;&lt;td height=&quot;47&quot; class=&quot;oa1&quot; width=&quot;76&quot; style=&quot;padding: 3.6pt 7.2pt; color: windowtext; font-size: 18pt; font-weight: 400; font-style: normal; text-decoration: none; font-family: Arial; vertical-align: top; border: 1pt solid black; text-align: center; height: 35.56pt; width: 57pt;&quot;&gt;&lt;p style=&quot;margin-top: 0pt; margin-bottom: 0pt; margin-left: 0in; text-align: center; direction: ltr; unicode-bidi: embed; word-break: normal;&quot;&gt;&lt;span style=&quot;font-size: 18pt; font-family: 等线; color: black;&quot;&gt;1&lt;/span&gt;&lt;/p&gt;&lt;/td&gt;&lt;td class=&quot;oa1&quot; width=&quot;112&quot; style=&quot;padding: 3.6pt 7.2pt; color: windowtext; font-size: 18pt; font-weight: 400; font-style: normal; text-decoration: none; font-family: Arial; vertical-align: top; border: 1pt solid black; text-align: center; width: 84pt;&quot;&gt;&lt;p style=&quot;margin-top: 0pt; margin-bottom: 0pt; margin-left: 0in; text-align: center; direction: ltr; unicode-bidi: embed; word-break: normal;&quot;&gt;&lt;span style=&quot;font-size: 18pt; font-family: 等线; color: black;&quot;&gt;714466&lt;/span&gt;&lt;/p&gt;&lt;/td&gt;&lt;td class=&quot;oa1&quot; width=&quot;169&quot; style=&quot;padding: 3.6pt 7.2pt; color: windowtext; font-size: 18pt; font-weight: 400; font-style: normal; text-decoration: none; font-family: Arial; vertical-align: top; border: 1pt solid black; text-align: center; width: 127pt;&quot;&gt;&lt;p style=&quot;line-height: normal; margin: 0pt 0in; text-indent: 0in; text-align: center; direction: ltr; unicode-bidi: embed; word-break: normal;&quot;&gt;&lt;span style=&quot;font-size: 18pt; font-family: 等线; color: black;&quot;&gt;Trantow&lt;/span&gt;&lt;span style=&quot;font-size: 18pt; font-family: 等线; color: black;&quot;&gt;-Barrows&lt;/span&gt;&lt;/p&gt;&lt;/td&gt;&lt;td class=&quot;oa1&quot; width=&quot;119&quot; style=&quot;padding: 3.6pt 7.2pt; color: windowtext; font-size: 18pt; font-weight: 400; font-style: normal; text-decoration: none; font-family: Arial; vertical-align: top; border: 1pt solid black; text-align: center; width: 89pt;&quot;&gt;&lt;p style=&quot;margin-top: 0pt; margin-bottom: 0pt; margin-left: 0in; text-align: center; direction: ltr; unicode-bidi: embed; word-break: normal;&quot;&gt;&lt;span style=&quot;font-size: 18pt; font-family: 等线; color: black;&quot;&gt;Craig Booker&lt;/span&gt;&lt;/p&gt;&lt;/td&gt;&lt;td class=&quot;oa1&quot; width=&quot;119&quot; style=&quot;padding: 3.6pt 7.2pt; color: windowtext; font-size: 18pt; font-weight: 400; font-style: normal; text-decoration: none; font-family: Arial; vertical-align: top; border: 1pt solid black; text-align: center; width: 89pt;&quot;&gt;&lt;p style=&quot;line-height: normal; margin: 0pt 0in; text-indent: 0in; text-align: center; direction: ltr; unicode-bidi: embed; word-break: normal;&quot;&gt;&lt;span style=&quot;font-size: 18pt; font-family: 等线; color: black;&quot;&gt;Debra&lt;span class=&quot;Apple-converted-space&quot;&gt;&amp;nbsp;&lt;/span&gt;&lt;/span&gt;&lt;span style=&quot;font-size: 18pt; font-family: 等线; color: black;&quot;&gt;Henly&lt;/span&gt;&lt;/p&gt;&lt;/td&gt;&lt;td class=&quot;oa1&quot; width=&quot;119&quot; style=&quot;padding: 3.6pt 7.2pt; color: windowtext; font-size: 18pt; font-weight: 400; font-style: normal; text-decoration: none; font-family: Arial; vertical-align: top; border: 1pt solid black; text-align: center; width: 89pt;&quot;&gt;&lt;p style=&quot;margin-top: 0pt; margin-bottom: 0pt; margin-left: 0in; text-align: center; direction: ltr; unicode-bidi: embed; word-break: normal;&quot;&gt;&lt;span style=&quot;font-size: 18pt; font-family: 等线; color: black;&quot;&gt;Software&lt;/span&gt;&lt;/p&gt;&lt;/td&gt;&lt;td class=&quot;oa1&quot; width=&quot;119&quot; style=&quot;padding: 3.6pt 7.2pt; color: windowtext; font-size: 18pt; font-weight: 400; font-style: normal; text-decoration: none; font-family: Arial; vertical-align: top; border: 1pt solid black; text-align: center; width: 89pt;&quot;&gt;&lt;p style=&quot;margin-top: 0pt; margin-bottom: 0pt; margin-left: 0in; text-align: center; direction: ltr; unicode-bidi: embed; word-break: normal;&quot;&gt;&lt;span style=&quot;font-size: 18pt; font-family: 等线; color: black;&quot;&gt;1&lt;/span&gt;&lt;/p&gt;&lt;/td&gt;&lt;td class=&quot;oa1&quot; width=&quot;100&quot; style=&quot;padding: 3.6pt 7.2pt; color: windowtext; font-size: 18pt; font-weight: 400; font-style: normal; text-decoration: none; font-family: Arial; vertical-align: top; border: 1pt solid black; text-align: center; width: 75pt;&quot;&gt;&lt;p style=&quot;margin-top: 0pt; margin-bottom: 0pt; margin-left: 0in; text-align: center; direction: ltr; unicode-bidi: embed; word-break: normal;&quot;&gt;&lt;span style=&quot;font-size: 18pt; font-family: 等线; color: black;&quot;&gt;10000&lt;/span&gt;&lt;/p&gt;&lt;/td&gt;&lt;td class=&quot;oa1&quot; width=&quot;139&quot; style=&quot;padding: 3.6pt 7.2pt; color: windowtext; font-size: 18pt; font-weight: 400; font-style: normal; text-decoration: none; font-family: Arial; vertical-align: top; border: 1pt solid black; text-align: center; width: 104pt;&quot;&gt;&lt;p style=&quot;margin-top: 0pt; margin-bottom: 0pt; margin-left: 0in; text-align: center; direction: ltr; unicode-bidi: embed; word-break: normal;&quot;&gt;&lt;span style=&quot;font-size: 18pt; font-family: 等线; color: black;&quot;&gt;presented&lt;/span&gt;&lt;/p&gt;&lt;/td&gt;&lt;/tr&gt;&lt;tr height=&quot;47&quot; style=&quot;height: 35.56pt;&quot;&gt;&lt;td height=&quot;47&quot; class=&quot;oa1&quot; width=&quot;76&quot; style=&quot;padding: 3.6pt 7.2pt; color: windowtext; font-size: 18pt; font-weight: 400; font-style: normal; text-decoration: none; font-family: Arial; vertical-align: top; border: 1pt solid black; text-align: center; height: 35.56pt; width: 57pt;&quot;&gt;&lt;p style=&quot;margin-top: 0pt; margin-bottom: 0pt; margin-left: 0in; text-align: center; direction: ltr; unicode-bidi: embed; word-break: normal;&quot;&gt;&lt;span style=&quot;font-size: 18pt; font-family: 等线; color: black;&quot;&gt;2&lt;/span&gt;&lt;/p&gt;&lt;/td&gt;&lt;td class=&quot;oa1&quot; width=&quot;112&quot; style=&quot;padding: 3.6pt 7.2pt; color: windowtext; font-size: 18pt; font-weight: 400; font-style: normal; text-decoration: none; font-family: Arial; vertical-align: top; border: 1pt solid black; text-align: center; width: 84pt;&quot;&gt;&lt;p style=&quot;margin-top: 0pt; margin-bottom: 0pt; margin-left: 0in; text-align: center; direction: ltr; unicode-bidi: embed; word-break: normal;&quot;&gt;&lt;span style=&quot;font-size: 18pt; font-family: 等线; color: black;&quot;&gt;714466&lt;/span&gt;&lt;/p&gt;&lt;/td&gt;&lt;td class=&quot;oa1&quot; width=&quot;169&quot; style=&quot;padding: 3.6pt 7.2pt; color: windowtext; font-size: 18pt; font-weight: 400; font-style: normal; text-decoration: none; font-family: Arial; vertical-align: top; border: 1pt solid black; text-align: center; width: 127pt;&quot;&gt;&lt;p style=&quot;line-height: normal; margin: 0pt 0in; text-indent: 0in; text-align: center; direction: ltr; unicode-bidi: embed; word-break: normal;&quot;&gt;&lt;span style=&quot;font-size: 18pt; font-family: 等线; color: black;&quot;&gt;Trantow&lt;/span&gt;&lt;span style=&quot;font-size: 18pt; font-family: 等线; color: black;&quot;&gt;-Barrows&lt;/span&gt;&lt;/p&gt;&lt;/td&gt;&lt;td class=&quot;oa1&quot; width=&quot;119&quot; style=&quot;padding: 3.6pt 7.2pt; color: windowtext; font-size: 18pt; font-weight: 400; font-style: normal; text-decoration: none; font-family: Arial; vertical-align: top; border: 1pt solid black; text-align: center; width: 89pt;&quot;&gt;&lt;p style=&quot;line-height: normal; margin: 0pt 0in; text-indent: 0in; text-align: center; direction: ltr; unicode-bidi: embed; word-break: normal;&quot;&gt;&lt;span style=&quot;font-size: 18pt; font-family: 等线; color: black;&quot;&gt;Craig Booker&lt;/span&gt;&lt;/p&gt;&lt;/td&gt;&lt;td class=&quot;oa1&quot; width=&quot;119&quot; style=&quot;padding: 3.6pt 7.2pt; color: windowtext; font-size: 18pt; font-weight: 400; font-style: normal; text-decoration: none; font-family: Arial; vertical-align: top; border: 1pt solid black; text-align: center; width: 89pt;&quot;&gt;&lt;p style=&quot;line-height: normal; margin: 0pt 0in; text-indent: 0in; text-align: center; direction: ltr; unicode-bidi: embed; word-break: normal;&quot;&gt;&lt;span style=&quot;font-size: 18pt; font-family: 等线; color: black;&quot;&gt;Debra&lt;span class=&quot;Apple-converted-space&quot;&gt;&amp;nbsp;&lt;/span&gt;&lt;/span&gt;&lt;span style=&quot;font-size: 18pt; font-family: 等线; color: black;&quot;&gt;Henly&lt;/span&gt;&lt;/p&gt;&lt;/td&gt;&lt;td class=&quot;oa1&quot; width=&quot;119&quot; style=&quot;padding: 3.6pt 7.2pt; color: windowtext; font-size: 18pt; font-weight: 400; font-style: normal; text-decoration: none; font-family: Arial; vertical-align: top; border: 1pt solid black; text-align: center; width: 89pt;&quot;&gt;&lt;p style=&quot;margin-top: 0pt; margin-bottom: 0pt; margin-left: 0in; text-align: center; direction: ltr; unicode-bidi: embed; word-break: normal;&quot;&gt;&lt;span style=&quot;font-size: 18pt; font-family: 等线; color: black;&quot;&gt;Maintenance&lt;/span&gt;&lt;/p&gt;&lt;/td&gt;&lt;td class=&quot;oa1&quot; width=&quot;119&quot; style=&quot;padding: 3.6pt 7.2pt; color: windowtext; font-size: 18pt; font-weight: 400; font-style: normal; text-decoration: none; font-family: Arial; vertical-align: top; border: 1pt solid black; text-align: center; width: 89pt;&quot;&gt;&lt;p style=&quot;margin-top: 0pt; margin-bottom: 0pt; margin-left: 0in; text-align: center; direction: ltr; unicode-bidi: embed; word-break: normal;&quot;&gt;&lt;span style=&quot;font-size: 18pt; font-family: 等线; color: black;&quot;&gt;2&lt;/span&gt;&lt;/p&gt;&lt;/td&gt;&lt;td class=&quot;oa1&quot; width=&quot;100&quot; style=&quot;padding: 3.6pt 7.2pt; color: windowtext; font-size: 18pt; font-weight: 400; font-style: normal; text-decoration: none; font-family: Arial; vertical-align: top; border: 1pt solid black; text-align: center; width: 75pt;&quot;&gt;&lt;p style=&quot;margin-top: 0pt; margin-bottom: 0pt; margin-left: 0in; text-align: center; direction: ltr; unicode-bidi: embed; word-break: normal;&quot;&gt;&lt;span style=&quot;font-size: 18pt; font-family: 等线; color: black;&quot;&gt;5000&lt;/span&gt;&lt;/p&gt;&lt;/td&gt;&lt;td class=&quot;oa1&quot; width=&quot;139&quot; style=&quot;padding: 3.6pt 7.2pt; color: windowtext; font-size: 18pt; font-weight: 400; font-style: normal; text-decoration: none; font-family: Arial; vertical-align: top; border: 1pt solid black; text-align: center; width: 104pt;&quot;&gt;&lt;p style=&quot;margin-top: 0pt; margin-bottom: 0pt; margin-left: 0in; text-align: center; direction: ltr; unicode-bidi: embed; word-break: normal;&quot;&gt;&lt;span style=&quot;font-size: 18pt; font-family: 等线; color: black;&quot;&gt;pending&lt;/span&gt;&lt;/p&gt;&lt;/td&gt;&lt;/tr&gt;&lt;tr height=&quot;47&quot; style=&quot;height: 35.56pt;&quot;&gt;&lt;td height=&quot;47&quot; class=&quot;oa1&quot; width=&quot;76&quot; style=&quot;padding: 3.6pt 7.2pt; color: windowtext; font-size: 18pt; font-weight: 400; font-style: normal; text-decoration: none; font-family: Arial; vertical-align: top; border: 1pt solid black; text-align: center; height: 35.56pt; width: 57pt;&quot;&gt;&lt;p style=&quot;margin-top: 0pt; margin-bottom: 0pt; margin-left: 0in; text-align: center; direction: ltr; unicode-bidi: embed; word-break: normal;&quot;&gt;&lt;span style=&quot;font-size: 18pt; font-family: 等线; color: black;&quot;&gt;3&lt;/span&gt;&lt;/p&gt;&lt;/td&gt;&lt;td class=&quot;oa1&quot; width=&quot;112&quot; style=&quot;padding: 3.6pt 7.2pt; color: windowtext; font-size: 18pt; font-weight: 400; font-style: normal; text-decoration: none; font-family: Arial; vertical-align: top; border: 1pt solid black; text-align: center; width: 84pt;&quot;&gt;&lt;p style=&quot;margin-top: 0pt; margin-bottom: 0pt; margin-left: 0in; text-align: center; direction: ltr; unicode-bidi: embed; word-break: normal;&quot;&gt;&lt;span style=&quot;font-size: 18pt; font-family: 等线; color: black;&quot;&gt;737550&lt;/span&gt;&lt;/p&gt;&lt;/td&gt;&lt;td class=&quot;oa1&quot; width=&quot;169&quot; style=&quot;padding: 3.6pt 7.2pt; color: windowtext; font-size: 18pt; font-weight: 400; font-style: normal; text-decoration: none; font-family: Arial; vertical-align: top; border: 1pt solid black; text-align: center; width: 127pt;&quot;&gt;&lt;p style=&quot;margin-top: 0pt; margin-bottom: 0pt; margin-left: 0in; text-align: center; direction: ltr; unicode-bidi: embed; word-break: normal;&quot;&gt;&lt;span style=&quot;font-size: 18pt; font-family: 等线; color: black;&quot;&gt;Fritsch, Russel and Anderson&lt;/span&gt;&lt;/p&gt;&lt;/td&gt;&lt;td class=&quot;oa1&quot; width=&quot;119&quot; style=&quot;padding: 3.6pt 7.2pt; color: windowtext; font-size: 18pt; font-weight: 400; font-style: normal; text-decoration: none; font-family: Arial; vertical-align: top; border: 1pt solid black; text-align: center; width: 89pt;&quot;&gt;&lt;p style=&quot;line-height: normal; margin: 0pt 0in; text-indent: 0in; text-align: center; direction: ltr; unicode-bidi: embed; word-break: normal;&quot;&gt;&lt;span style=&quot;font-size: 18pt; font-family: 等线; color: black;&quot;&gt;Craig Booker&lt;/span&gt;&lt;/p&gt;&lt;/td&gt;&lt;td class=&quot;oa1&quot; width=&quot;119&quot; style=&quot;padding: 3.6pt 7.2pt; color: windowtext; font-size: 18pt; font-weight: 400; font-style: normal; text-decoration: none; font-family: Arial; vertical-align: top; border: 1pt solid black; text-align: center; width: 89pt;&quot;&gt;&lt;p style=&quot;line-height: normal; margin: 0pt 0in; text-indent: 0in; text-align: center; direction: ltr; unicode-bidi: embed; word-break: normal;&quot;&gt;&lt;span style=&quot;font-size: 18pt; font-family: 等线; color: black;&quot;&gt;Debra&lt;span class=&quot;Apple-converted-space&quot;&gt;&amp;nbsp;&lt;/span&gt;&lt;/span&gt;&lt;span style=&quot;font-size: 18pt; font-family: 等线; color: black;&quot;&gt;Henly&lt;/span&gt;&lt;/p&gt;&lt;/td&gt;&lt;td class=&quot;oa1&quot; width=&quot;119&quot; style=&quot;padding: 3.6pt 7.2pt; color: windowtext; font-size: 18pt; font-weight: 400; font-style: normal; text-decoration: none; font-family: Arial; vertical-align: top; border: 1pt solid black; text-align: center; width: 89pt;&quot;&gt;&lt;p style=&quot;margin-top: 0pt; margin-bottom: 0pt; margin-left: 0in; text-align: center; direction: ltr; unicode-bidi: embed; word-break: normal;&quot;&gt;&lt;span style=&quot;font-size: 18pt; font-family: 等线; color: black;&quot;&gt;CPU&lt;/span&gt;&lt;/p&gt;&lt;/td&gt;&lt;td class=&quot;oa1&quot; width=&quot;119&quot; style=&quot;padding: 3.6pt 7.2pt; color: windowtext; font-size: 18pt; font-weight: 400; font-style: normal; text-decoration: none; font-family: Arial; vertical-align: top; border: 1pt solid black; text-align: center; width: 89pt;&quot;&gt;&lt;p style=&quot;margin-top: 0pt; margin-bottom: 0pt; margin-left: 0in; text-align: center; direction: ltr; unicode-bidi: embed; word-break: normal;&quot;&gt;&lt;span style=&quot;font-size: 18pt; font-family: 等线; color: black;&quot;&gt;1&lt;/span&gt;&lt;/p&gt;&lt;/td&gt;&lt;td class=&quot;oa1&quot; width=&quot;100&quot; style=&quot;padding: 3.6pt 7.2pt; color: windowtext; font-size: 18pt; font-weight: 400; font-style: normal; text-decoration: none; font-family: Arial; vertical-align: top; border: 1pt solid black; text-align: center; width: 75pt;&quot;&gt;&lt;p style=&quot;margin-top: 0pt; margin-bottom: 0pt; margin-left: 0in; text-align: center; direction: ltr; unicode-bidi: embed; word-break: normal;&quot;&gt;&lt;span style=&quot;font-size: 18pt; font-family: 等线; color: black;&quot;&gt;35000&lt;/span&gt;&lt;/p&gt;&lt;/td&gt;&lt;td class=&quot;oa1&quot; width=&quot;139&quot; style=&quot;padding: 3.6pt 7.2pt; color: windowtext; font-size: 18pt; font-weight: 400; font-style: normal; text-decoration: none; font-family: Arial; vertical-align: top; border: 1pt solid black; text-align: center; width: 104pt;&quot;&gt;&lt;p style=&quot;margin-top: 0pt; margin-bottom: 0pt; margin-left: 0in; text-align: center; direction: ltr; unicode-bidi: embed; word-break: normal;&quot;&gt;&lt;span style=&quot;font-size: 18pt; font-family: 等线; color: black;&quot;&gt;declined&lt;/span&gt;&lt;/p&gt;&lt;/td&gt;&lt;/tr&gt;&lt;tr height=&quot;47&quot; style=&quot;height: 35.56pt;&quot;&gt;&lt;td height=&quot;47&quot; class=&quot;oa1&quot; width=&quot;76&quot; style=&quot;padding: 3.6pt 7.2pt; color: windowtext; font-size: 18pt; font-weight: 400; font-style: normal; text-decoration: none; font-family: Arial; vertical-align: top; border: 1pt solid black; text-align: center; height: 35.56pt; width: 57pt;&quot;&gt;&lt;p style=&quot;margin-top: 0pt; margin-bottom: 0pt; margin-left: 0in; text-align: center; direction: ltr; unicode-bidi: embed; word-break: normal;&quot;&gt;&lt;span style=&quot;font-size: 18pt; font-family: 等线; color: black;&quot;&gt;4&lt;/span&gt;&lt;/p&gt;&lt;/td&gt;&lt;td class=&quot;oa1&quot; width=&quot;112&quot; style=&quot;padding: 3.6pt 7.2pt; color: windowtext; font-size: 18pt; font-weight: 400; font-style: normal; text-decoration: none; font-family: Arial; vertical-align: top; border: 1pt solid black; text-align: center; width: 84pt;&quot;&gt;&lt;p style=&quot;margin-top: 0pt; margin-bottom: 0pt; margin-left: 0in; text-align: center; direction: ltr; unicode-bidi: embed; word-break: normal;&quot;&gt;&lt;span style=&quot;font-size: 18pt; font-family: 等线; color: black;&quot;&gt;146830&lt;/span&gt;&lt;/p&gt;&lt;/td&gt;&lt;td class=&quot;oa1&quot; width=&quot;169&quot; style=&quot;padding: 3.6pt 7.2pt; color: windowtext; font-size: 18pt; font-weight: 400; font-style: normal; text-decoration: none; font-family: Arial; vertical-align: top; border: 1pt solid black; text-align: center; width: 127pt;&quot;&gt;&lt;p style=&quot;margin-top: 0pt; margin-bottom: 0pt; margin-left: 0in; text-align: center; direction: ltr; unicode-bidi: embed; word-break: normal;&quot;&gt;&lt;span style=&quot;font-size: 18pt; font-family: 等线; color: black;&quot;&gt;Kiehn-Spinka&lt;/span&gt;&lt;/p&gt;&lt;/td&gt;&lt;td class=&quot;oa1&quot; width=&quot;119&quot; style=&quot;padding: 3.6pt 7.2pt; color: windowtext; font-size: 18pt; font-weight: 400; font-style: normal; text-decoration: none; font-family: Arial; vertical-align: top; border: 1pt solid black; text-align: center; width: 89pt;&quot;&gt;&lt;p style=&quot;margin-top: 0pt; margin-bottom: 0pt; margin-left: 0in; text-align: center; direction: ltr; unicode-bidi: embed; word-break: normal;&quot;&gt;&lt;span style=&quot;font-size: 18pt; font-family: 等线; color: black;&quot;&gt;Daniel Hilton&lt;/span&gt;&lt;/p&gt;&lt;/td&gt;&lt;td class=&quot;oa1&quot; width=&quot;119&quot; style=&quot;padding: 3.6pt 7.2pt; color: windowtext; font-size: 18pt; font-weight: 400; font-style: normal; text-decoration: none; font-family: Arial; vertical-align: top; border: 1pt solid black; text-align: center; width: 89pt;&quot;&gt;&lt;p style=&quot;line-height: normal; margin: 0pt 0in; text-indent: 0in; text-align: center; direction: ltr; unicode-bidi: embed; word-break: normal;&quot;&gt;&lt;span style=&quot;font-size: 18pt; font-family: 等线; color: black;&quot;&gt;Debra&lt;span class=&quot;Apple-converted-space&quot;&gt;&amp;nbsp;&lt;/span&gt;&lt;/span&gt;&lt;span style=&quot;font-size: 18pt; font-family: 等线; color: black;&quot;&gt;Henly&lt;/span&gt;&lt;/p&gt;&lt;/td&gt;&lt;td class=&quot;oa1&quot; width=&quot;119&quot; style=&quot;padding: 3.6pt 7.2pt; color: windowtext; font-size: 18pt; font-weight: 400; font-style: normal; text-decoration: none; font-family: Arial; vertical-align: top; border: 1pt solid black; text-align: center; width: 89pt;&quot;&gt;&lt;p style=&quot;margin-top: 0pt; margin-bottom: 0pt; margin-left: 0in; text-align: center; direction: ltr; unicode-bidi: embed; word-break: normal;&quot;&gt;&lt;span style=&quot;font-size: 18pt; font-family: 等线; color: black;&quot;&gt;CPU&lt;/span&gt;&lt;/p&gt;&lt;/td&gt;&lt;td class=&quot;oa1&quot; width=&quot;119&quot; style=&quot;padding: 3.6pt 7.2pt; color: windowtext; font-size: 18pt; font-weight: 400; font-style: normal; text-decoration: none; font-family: Arial; vertical-align: top; border: 1pt solid black; text-align: center; width: 89pt;&quot;&gt;&lt;p style=&quot;margin-top: 0pt; margin-bottom: 0pt; margin-left: 0in; text-align: center; direction: ltr; unicode-bidi: embed; word-break: normal;&quot;&gt;&lt;span style=&quot;font-size: 18pt; font-family: 等线; color: black;&quot;&gt;2&lt;/span&gt;&lt;/p&gt;&lt;/td&gt;&lt;td class=&quot;oa1&quot; width=&quot;100&quot; style=&quot;padding: 3.6pt 7.2pt; color: windowtext; font-size: 18pt; font-weight: 400; font-style: normal; text-decoration: none; font-family: Arial; vertical-align: top; border: 1pt solid black; text-align: center; width: 75pt;&quot;&gt;&lt;p style=&quot;margin-top: 0pt; margin-bottom: 0pt; margin-left: 0in; text-align: center; direction: ltr; unicode-bidi: embed; word-break: normal;&quot;&gt;&lt;span style=&quot;font-size: 18pt; font-family: 等线; color: black;&quot;&gt;65000&lt;/span&gt;&lt;/p&gt;&lt;/td&gt;&lt;td class=&quot;oa1&quot; width=&quot;139&quot; style=&quot;padding: 3.6pt 7.2pt; color: windowtext; font-size: 18pt; font-weight: 400; font-style: normal; text-decoration: none; font-family: Arial; vertical-align: top; border: 1pt solid black; text-align: center; width: 104pt;&quot;&gt;&lt;p style=&quot;margin-top: 0pt; margin-bottom: 0pt; margin-left: 0in; text-align: center; direction: ltr; unicode-bidi: embed; word-break: normal;&quot;&gt;&lt;span style=&quot;font-size: 18pt; font-family: 等线; color: black;&quot;&gt;won&lt;/span&gt;&lt;/p&gt;&lt;/td&gt;&lt;/tr&gt;&lt;/tbody&gt;&lt;/table&gt;" style="text;whiteSpace=wrap;html=1;" vertex="1" parent="1">
          <mxGeometry x="280" y="50" width="1090" height="430" as="geometry" />
        </mxCell>
        <mxCell id="cUyVVVKYGetLILxytOfe-100" value="&lt;table border=&quot;0&quot; cellpadding=&quot;0&quot; cellspacing=&quot;0&quot; width=&quot;864&quot; style=&quot;caret-color: rgb(0, 0, 0); color: rgb(0, 0, 0); font-style: normal; font-variant-caps: normal; font-weight: 400; letter-spacing: normal; text-align: start; text-transform: none; word-spacing: 0px; -webkit-text-stroke-width: 0px; text-decoration: none; border-collapse: collapse; width: 648pt;&quot;&gt;&lt;colgroup&gt;&lt;col width=&quot;122&quot; style=&quot;width: 91pt;&quot;&gt;&lt;col width=&quot;128&quot; style=&quot;width: 96pt;&quot;&gt;&lt;col width=&quot;104&quot; style=&quot;width: 78pt;&quot;&gt;&lt;col width=&quot;158&quot; style=&quot;width: 118pt;&quot;&gt;&lt;col width=&quot;109&quot; style=&quot;width: 81pt;&quot;&gt;&lt;col width=&quot;122&quot; span=&quot;2&quot; style=&quot;width: 91pt;&quot;&gt;&lt;/colgroup&gt;&lt;tbody&gt;&lt;tr height=&quot;39&quot; style=&quot;height: 29.2pt;&quot;&gt;&lt;td height=&quot;39&quot; class=&quot;oa1&quot; width=&quot;122&quot; style=&quot;padding: 3.6pt 7.2pt; color: windowtext; font-size: 18pt; font-weight: 400; font-style: normal; text-decoration: none; font-family: Arial; vertical-align: top; border: 1pt solid black; height: 29.2pt; width: 91pt;&quot;&gt;&lt;p style=&quot;margin-top: 0pt; margin-bottom: 0pt; margin-left: 0in; text-align: left; direction: ltr; unicode-bidi: embed; word-break: normal;&quot;&gt;&lt;/p&gt;&lt;/td&gt;&lt;td class=&quot;oa1&quot; width=&quot;128&quot; style=&quot;padding: 3.6pt 7.2pt; color: windowtext; font-size: 18pt; font-weight: 400; font-style: normal; text-decoration: none; font-family: Arial; vertical-align: top; border: 1pt solid black; width: 96pt;&quot;&gt;&lt;p style=&quot;margin-top: 0pt; margin-bottom: 0pt; margin-left: 0in; text-align: left; direction: ltr; unicode-bidi: embed; word-break: normal;&quot;&gt;&lt;/p&gt;&lt;/td&gt;&lt;td colspan=&quot;5&quot; class=&quot;oa1&quot; width=&quot;614&quot; style=&quot;padding: 3.6pt 7.2pt; color: windowtext; font-size: 18pt; font-style: normal; text-decoration: none; font-family: Arial; vertical-align: top; border: 1pt solid black; width: 461pt;&quot;&gt;&lt;p style=&quot;margin-top: 0pt; margin-bottom: 0pt; margin-left: 0in; text-align: left; direction: ltr; unicode-bidi: embed; word-break: normal;&quot;&gt;&lt;span style=&quot;font-size: 18pt; font-family: 等线; color: black;&quot;&gt;&lt;b&gt;sum&lt;/b&gt;&lt;/span&gt;&lt;/p&gt;&lt;/td&gt;&lt;/tr&gt;&lt;tr height=&quot;39&quot; style=&quot;height: 29.2pt;&quot;&gt;&lt;td height=&quot;39&quot; class=&quot;oa1&quot; width=&quot;122&quot; style=&quot;padding: 3.6pt 7.2pt; color: windowtext; font-size: 18pt; font-style: normal; text-decoration: none; font-family: Arial; vertical-align: top; border: 1pt solid black; height: 29.2pt; width: 91pt;&quot;&gt;&lt;p style=&quot;margin-top: 0pt; margin-bottom: 0pt; margin-left: 0in; text-align: left; direction: ltr; unicode-bidi: embed; word-break: normal;&quot;&gt;&lt;/p&gt;&lt;/td&gt;&lt;td class=&quot;oa1&quot; width=&quot;128&quot; style=&quot;padding: 3.6pt 7.2pt; color: windowtext; font-size: 18pt; font-style: normal; text-decoration: none; font-family: Arial; vertical-align: top; border: 1pt solid black; width: 96pt;&quot;&gt;&lt;p style=&quot;margin-top: 0pt; margin-bottom: 0pt; margin-left: 0in; text-align: left; direction: ltr; unicode-bidi: embed; word-break: normal;&quot;&gt;&lt;/p&gt;&lt;/td&gt;&lt;td colspan=&quot;5&quot; class=&quot;oa1&quot; width=&quot;614&quot; style=&quot;padding: 3.6pt 7.2pt; color: windowtext; font-size: 18pt; font-style: normal; text-decoration: none; font-family: Arial; vertical-align: top; border: 1pt solid black; width: 461pt;&quot;&gt;&lt;p style=&quot;margin-top: 0pt; margin-bottom: 0pt; margin-left: 0in; text-align: left; direction: ltr; unicode-bidi: embed; word-break: normal;&quot;&gt;&lt;span style=&quot;font-size: 18pt; font-family: 等线; color: black;&quot;&gt;&lt;b&gt;price&lt;/b&gt;&lt;/span&gt;&lt;/p&gt;&lt;/td&gt;&lt;/tr&gt;&lt;tr height=&quot;39&quot; style=&quot;height: 29.2pt;&quot;&gt;&lt;td height=&quot;39&quot; class=&quot;oa1&quot; width=&quot;122&quot; style=&quot;padding: 3.6pt 7.2pt; color: windowtext; font-size: 18pt; font-weight: 400; font-style: normal; text-decoration: none; font-family: Arial; vertical-align: top; border: 1pt solid black; height: 29.2pt; width: 91pt;&quot;&gt;&lt;p style=&quot;margin-top: 0pt; margin-bottom: 0pt; margin-left: 0in; text-align: left; direction: ltr; unicode-bidi: embed; word-break: normal;&quot;&gt;&lt;/p&gt;&lt;/td&gt;&lt;td class=&quot;oa1&quot; width=&quot;128&quot; style=&quot;padding: 3.6pt 7.2pt; color: windowtext; font-size: 18pt; font-style: normal; text-decoration: none; font-family: Arial; vertical-align: top; border: 1pt solid black; width: 96pt;&quot;&gt;&lt;p style=&quot;margin-top: 0pt; margin-bottom: 0pt; margin-left: 0in; text-align: left; direction: ltr; unicode-bidi: embed; word-break: normal;&quot;&gt;&lt;span style=&quot;font-size: 18pt; font-family: 等线; color: black;&quot;&gt;&lt;b&gt;Product&lt;/b&gt;&lt;/span&gt;&lt;/p&gt;&lt;/td&gt;&lt;td class=&quot;oa1&quot; width=&quot;104&quot; style=&quot;padding: 3.6pt 7.2pt; color: windowtext; font-size: 18pt; font-style: normal; text-decoration: none; font-family: Arial; vertical-align: top; border: 1pt solid black; width: 78pt;&quot;&gt;&lt;p style=&quot;margin-top: 0pt; margin-bottom: 0pt; margin-left: 0in; text-align: left; direction: ltr; unicode-bidi: embed; word-break: normal;&quot;&gt;&lt;span style=&quot;font-size: 18pt; font-family: 等线; color: black;&quot;&gt;CPU&lt;/span&gt;&lt;/p&gt;&lt;/td&gt;&lt;td class=&quot;oa1&quot; width=&quot;158&quot; style=&quot;padding: 3.6pt 7.2pt; color: windowtext; font-size: 18pt; font-weight: 400; font-style: normal; text-decoration: none; font-family: Arial; vertical-align: top; border: 1pt solid black; width: 118pt;&quot;&gt;&lt;p style=&quot;margin-top: 0pt; margin-bottom: 0pt; margin-left: 0in; text-align: left; direction: ltr; unicode-bidi: embed; word-break: normal;&quot;&gt;&lt;span style=&quot;font-size: 18pt; font-family: 等线; color: black;&quot;&gt;Maintenance&lt;/span&gt;&lt;/p&gt;&lt;/td&gt;&lt;td class=&quot;oa1&quot; width=&quot;109&quot; style=&quot;padding: 3.6pt 7.2pt; color: windowtext; font-size: 18pt; font-weight: 400; font-style: normal; text-decoration: none; font-family: Arial; vertical-align: top; border: 1pt solid black; width: 81pt;&quot;&gt;&lt;p style=&quot;margin-top: 0pt; margin-bottom: 0pt; margin-left: 0in; text-align: left; direction: ltr; unicode-bidi: embed; word-break: normal;&quot;&gt;&lt;span style=&quot;font-size: 18pt; font-family: 等线; color: black;&quot;&gt;Monitor&lt;/span&gt;&lt;/p&gt;&lt;/td&gt;&lt;td class=&quot;oa1&quot; width=&quot;122&quot; style=&quot;padding: 3.6pt 7.2pt; color: windowtext; font-size: 18pt; font-weight: 400; font-style: normal; text-decoration: none; font-family: Arial; vertical-align: top; border: 1pt solid black; width: 91pt;&quot;&gt;&lt;p style=&quot;margin-top: 0pt; margin-bottom: 0pt; margin-left: 0in; text-align: left; direction: ltr; unicode-bidi: embed; word-break: normal;&quot;&gt;&lt;span style=&quot;font-size: 18pt; font-family: 等线; color: black;&quot;&gt;Software&lt;/span&gt;&lt;/p&gt;&lt;/td&gt;&lt;td class=&quot;oa1&quot; width=&quot;122&quot; style=&quot;padding: 3.6pt 7.2pt; color: windowtext; font-size: 18pt; font-weight: 400; font-style: normal; text-decoration: none; font-family: Arial; vertical-align: top; border: 1pt solid black; width: 91pt;&quot;&gt;&lt;p style=&quot;margin-top: 0pt; margin-bottom: 0pt; margin-left: 0in; text-align: left; direction: ltr; unicode-bidi: embed; word-break: normal;&quot;&gt;&lt;span style=&quot;font-size: 18pt; font-family: 等线; color: black;&quot;&gt;All&lt;/span&gt;&lt;/p&gt;&lt;/td&gt;&lt;/tr&gt;&lt;tr height=&quot;39&quot; style=&quot;height: 29.2pt;&quot;&gt;&lt;td height=&quot;39&quot; class=&quot;oa1&quot; width=&quot;122&quot; style=&quot;padding: 3.6pt 7.2pt; color: windowtext; font-size: 18pt; font-style: normal; text-decoration: none; font-family: Arial; vertical-align: top; border: 1pt solid black; height: 29.2pt; width: 91pt;&quot;&gt;&lt;p style=&quot;margin-top: 0pt; margin-bottom: 0pt; margin-left: 0in; text-align: left; direction: ltr; unicode-bidi: embed; word-break: normal;&quot;&gt;&lt;span style=&quot;font-size: 18pt; font-family: 等线; color: black;&quot;&gt;&lt;b&gt;Manager&lt;/b&gt;&lt;/span&gt;&lt;/p&gt;&lt;/td&gt;&lt;td class=&quot;oa1&quot; width=&quot;128&quot; style=&quot;padding: 3.6pt 7.2pt; color: windowtext; font-size: 18pt; font-style: normal; text-decoration: none; font-family: Arial; vertical-align: top; border: 1pt solid black; width: 96pt;&quot;&gt;&lt;p style=&quot;margin-top: 0pt; margin-bottom: 0pt; margin-left: 0in; text-align: left; direction: ltr; unicode-bidi: embed; word-break: normal;&quot;&gt;&lt;span style=&quot;font-size: 18pt; font-family: 等线; color: black;&quot;&gt;&lt;b&gt;Status&lt;/b&gt;&lt;/span&gt;&lt;/p&gt;&lt;/td&gt;&lt;td class=&quot;oa1&quot; width=&quot;104&quot; style=&quot;padding: 3.6pt 7.2pt; color: windowtext; font-size: 18pt; font-weight: 400; font-style: normal; text-decoration: none; font-family: Arial; vertical-align: top; border: 1pt solid black; width: 78pt;&quot;&gt;&lt;p style=&quot;margin-top: 0pt; margin-bottom: 0pt; margin-left: 0in; text-align: left; direction: ltr; unicode-bidi: embed; word-break: normal;&quot;&gt;&lt;/p&gt;&lt;/td&gt;&lt;td class=&quot;oa1&quot; width=&quot;158&quot; style=&quot;padding: 3.6pt 7.2pt; color: windowtext; font-size: 18pt; font-weight: 400; font-style: normal; text-decoration: none; font-family: Arial; vertical-align: top; border: 1pt solid black; width: 118pt;&quot;&gt;&lt;p style=&quot;margin-top: 0pt; margin-bottom: 0pt; margin-left: 0in; text-align: left; direction: ltr; unicode-bidi: embed; word-break: normal;&quot;&gt;&lt;/p&gt;&lt;/td&gt;&lt;td class=&quot;oa1&quot; width=&quot;109&quot; style=&quot;padding: 3.6pt 7.2pt; color: windowtext; font-size: 18pt; font-weight: 400; font-style: normal; text-decoration: none; font-family: Arial; vertical-align: top; border: 1pt solid black; width: 81pt;&quot;&gt;&lt;p style=&quot;margin-top: 0pt; margin-bottom: 0pt; margin-left: 0in; text-align: left; direction: ltr; unicode-bidi: embed; word-break: normal;&quot;&gt;&lt;/p&gt;&lt;/td&gt;&lt;td class=&quot;oa1&quot; width=&quot;122&quot; style=&quot;padding: 3.6pt 7.2pt; color: windowtext; font-size: 18pt; font-weight: 400; font-style: normal; text-decoration: none; font-family: Arial; vertical-align: top; border: 1pt solid black; width: 91pt;&quot;&gt;&lt;p style=&quot;margin-top: 0pt; margin-bottom: 0pt; margin-left: 0in; text-align: left; direction: ltr; unicode-bidi: embed; word-break: normal;&quot;&gt;&lt;/p&gt;&lt;/td&gt;&lt;td class=&quot;oa1&quot; width=&quot;122&quot; style=&quot;padding: 3.6pt 7.2pt; color: windowtext; font-size: 18pt; font-weight: 400; font-style: normal; text-decoration: none; font-family: Arial; vertical-align: top; border: 1pt solid black; width: 91pt;&quot;&gt;&lt;p style=&quot;margin-top: 0pt; margin-bottom: 0pt; margin-left: 0in; text-align: left; direction: ltr; unicode-bidi: embed; word-break: normal;&quot;&gt;&lt;/p&gt;&lt;/td&gt;&lt;/tr&gt;&lt;tr height=&quot;39&quot; style=&quot;height: 29.2pt;&quot;&gt;&lt;td rowspan=&quot;4&quot; height=&quot;156&quot; class=&quot;oa1&quot; width=&quot;122&quot; style=&quot;padding: 3.6pt 7.2pt; color: windowtext; font-size: 18pt; font-weight: 400; font-style: normal; text-decoration: none; font-family: Arial; vertical-align: top; border: 1pt solid black; height: 116.8pt; width: 91pt;&quot;&gt;&lt;p style=&quot;margin-top: 0pt; margin-bottom: 0pt; margin-left: 0in; text-align: left; direction: ltr; unicode-bidi: embed; word-break: normal;&quot;&gt;&lt;span style=&quot;font-size: 18pt; font-family: 等线; color: black;&quot;&gt;Debra&lt;span class=&quot;Apple-converted-space&quot;&gt;&amp;nbsp;&lt;/span&gt;&lt;/span&gt;&lt;span style=&quot;font-size: 18pt; font-family: 等线; color: black;&quot;&gt;Henly&lt;/span&gt;&lt;/p&gt;&lt;/td&gt;&lt;td class=&quot;oa1&quot; width=&quot;128&quot; style=&quot;padding: 3.6pt 7.2pt; color: windowtext; font-size: 18pt; font-weight: 400; font-style: normal; text-decoration: none; font-family: Arial; vertical-align: top; border: 1pt solid black; width: 96pt;&quot;&gt;&lt;p style=&quot;margin-top: 0pt; margin-bottom: 0pt; margin-left: 0in; text-align: left; direction: ltr; unicode-bidi: embed; word-break: normal;&quot;&gt;&lt;span style=&quot;font-size: 18pt; font-family: 等线; color: black;&quot;&gt;declined&lt;/span&gt;&lt;/p&gt;&lt;/td&gt;&lt;td class=&quot;oa1&quot; width=&quot;104&quot; style=&quot;padding: 3.6pt 7.2pt; color: windowtext; font-size: 18pt; font-weight: 400; font-style: normal; text-decoration: none; font-family: Arial; vertical-align: top; border: 1pt solid black; width: 78pt;&quot;&gt;&lt;p style=&quot;margin-top: 0pt; margin-bottom: 0pt; margin-left: 0in; text-align: left; direction: ltr; unicode-bidi: embed; word-break: normal;&quot;&gt;&lt;span style=&quot;font-size: 18pt; font-family: 等线; color: black;&quot;&gt;70000&lt;/span&gt;&lt;/p&gt;&lt;/td&gt;&lt;td class=&quot;oa1&quot; width=&quot;158&quot; style=&quot;padding: 3.6pt 7.2pt; color: windowtext; font-size: 18pt; font-weight: 400; font-style: normal; text-decoration: none; font-family: Arial; vertical-align: top; border: 1pt solid black; width: 118pt;&quot;&gt;&lt;p style=&quot;margin-top: 0pt; margin-bottom: 0pt; margin-left: 0in; text-align: left; direction: ltr; unicode-bidi: embed; word-break: normal;&quot;&gt;&lt;span style=&quot;font-size: 18pt; font-family: 等线; color: black;&quot;&gt;0&lt;/span&gt;&lt;/p&gt;&lt;/td&gt;&lt;td class=&quot;oa1&quot; width=&quot;109&quot; style=&quot;padding: 3.6pt 7.2pt; color: windowtext; font-size: 18pt; font-weight: 400; font-style: normal; text-decoration: none; font-family: Arial; vertical-align: top; border: 1pt solid black; width: 81pt;&quot;&gt;&lt;p style=&quot;margin-top: 0pt; margin-bottom: 0pt; margin-left: 0in; text-align: left; direction: ltr; unicode-bidi: embed; word-break: normal;&quot;&gt;&lt;span style=&quot;font-size: 18pt; font-family: 等线; color: black;&quot;&gt;0&lt;/span&gt;&lt;/p&gt;&lt;/td&gt;&lt;td class=&quot;oa1&quot; width=&quot;122&quot; style=&quot;padding: 3.6pt 7.2pt; color: windowtext; font-size: 18pt; font-weight: 400; font-style: normal; text-decoration: none; font-family: Arial; vertical-align: top; border: 1pt solid black; width: 91pt;&quot;&gt;&lt;p style=&quot;margin-top: 0pt; margin-bottom: 0pt; margin-left: 0in; text-align: left; direction: ltr; unicode-bidi: embed; word-break: normal;&quot;&gt;&lt;span style=&quot;font-size: 18pt; font-family: 等线; color: black;&quot;&gt;0&lt;/span&gt;&lt;/p&gt;&lt;/td&gt;&lt;td class=&quot;oa1&quot; width=&quot;122&quot; style=&quot;padding: 3.6pt 7.2pt; color: windowtext; font-size: 18pt; font-weight: 400; font-style: normal; text-decoration: none; font-family: Arial; vertical-align: top; border: 1pt solid black; width: 91pt;&quot;&gt;&lt;p style=&quot;margin-top: 0pt; margin-bottom: 0pt; margin-left: 0in; text-align: left; direction: ltr; unicode-bidi: embed; word-break: normal;&quot;&gt;&lt;span style=&quot;font-size: 18pt; font-family: 等线; color: black;&quot;&gt;70000&lt;/span&gt;&lt;/p&gt;&lt;/td&gt;&lt;/tr&gt;&lt;tr height=&quot;39&quot; style=&quot;height: 29.2pt;&quot;&gt;&lt;td height=&quot;39&quot; class=&quot;oa1&quot; width=&quot;128&quot; style=&quot;padding: 3.6pt 7.2pt; color: windowtext; font-size: 18pt; font-weight: 400; font-style: normal; text-decoration: none; font-family: Arial; vertical-align: top; border: 1pt solid black; height: 29.2pt; width: 96pt;&quot;&gt;&lt;p style=&quot;margin-top: 0pt; margin-bottom: 0pt; margin-left: 0in; text-align: left; direction: ltr; unicode-bidi: embed; word-break: normal;&quot;&gt;&lt;span style=&quot;font-size: 18pt; font-family: 等线; color: black;&quot;&gt;pending&lt;/span&gt;&lt;/p&gt;&lt;/td&gt;&lt;td class=&quot;oa1&quot; width=&quot;104&quot; style=&quot;padding: 3.6pt 7.2pt; color: windowtext; font-size: 18pt; font-weight: 400; font-style: normal; text-decoration: none; font-family: Arial; vertical-align: top; border: 1pt solid black; width: 78pt;&quot;&gt;&lt;p style=&quot;margin-top: 0pt; margin-bottom: 0pt; margin-left: 0in; text-align: left; direction: ltr; unicode-bidi: embed; word-break: normal;&quot;&gt;&lt;span style=&quot;font-size: 18pt; font-family: 等线; color: black;&quot;&gt;40000&lt;/span&gt;&lt;/p&gt;&lt;/td&gt;&lt;td class=&quot;oa1&quot; width=&quot;158&quot; style=&quot;padding: 3.6pt 7.2pt; color: windowtext; font-size: 18pt; font-weight: 400; font-style: normal; text-decoration: none; font-family: Arial; vertical-align: top; border: 1pt solid black; width: 118pt;&quot;&gt;&lt;p style=&quot;margin-top: 0pt; margin-bottom: 0pt; margin-left: 0in; text-align: left; direction: ltr; unicode-bidi: embed; word-break: normal;&quot;&gt;&lt;span style=&quot;font-size: 18pt; font-family: 等线; color: black;&quot;&gt;10000&lt;/span&gt;&lt;/p&gt;&lt;/td&gt;&lt;td class=&quot;oa1&quot; width=&quot;109&quot; style=&quot;padding: 3.6pt 7.2pt; color: windowtext; font-size: 18pt; font-weight: 400; font-style: normal; text-decoration: none; font-family: Arial; vertical-align: top; border: 1pt solid black; width: 81pt;&quot;&gt;&lt;p style=&quot;margin-top: 0pt; margin-bottom: 0pt; margin-left: 0in; text-align: left; direction: ltr; unicode-bidi: embed; word-break: normal;&quot;&gt;&lt;span style=&quot;font-size: 18pt; font-family: 等线; color: black;&quot;&gt;0&lt;/span&gt;&lt;/p&gt;&lt;/td&gt;&lt;td class=&quot;oa1&quot; width=&quot;122&quot; style=&quot;padding: 3.6pt 7.2pt; color: windowtext; font-size: 18pt; font-weight: 400; font-style: normal; text-decoration: none; font-family: Arial; vertical-align: top; border: 1pt solid black; width: 91pt;&quot;&gt;&lt;p style=&quot;margin-top: 0pt; margin-bottom: 0pt; margin-left: 0in; text-align: left; direction: ltr; unicode-bidi: embed; word-break: normal;&quot;&gt;&lt;span style=&quot;font-size: 18pt; font-family: 等线; color: black;&quot;&gt;0&lt;/span&gt;&lt;/p&gt;&lt;/td&gt;&lt;td class=&quot;oa1&quot; width=&quot;122&quot; style=&quot;padding: 3.6pt 7.2pt; color: windowtext; font-size: 18pt; font-weight: 400; font-style: normal; text-decoration: none; font-family: Arial; vertical-align: top; border: 1pt solid black; width: 91pt;&quot;&gt;&lt;p style=&quot;margin-top: 0pt; margin-bottom: 0pt; margin-left: 0in; text-align: left; direction: ltr; unicode-bidi: embed; word-break: normal;&quot;&gt;&lt;span style=&quot;font-size: 18pt; font-family: 等线; color: black;&quot;&gt;50000&lt;/span&gt;&lt;/p&gt;&lt;/td&gt;&lt;/tr&gt;&lt;tr height=&quot;39&quot; style=&quot;height: 29.2pt;&quot;&gt;&lt;td height=&quot;39&quot; class=&quot;oa1&quot; width=&quot;128&quot; style=&quot;padding: 3.6pt 7.2pt; color: windowtext; font-size: 18pt; font-weight: 400; font-style: normal; text-decoration: none; font-family: Arial; vertical-align: top; border: 1pt solid black; height: 29.2pt; width: 96pt;&quot;&gt;&lt;p style=&quot;margin-top: 0pt; margin-bottom: 0pt; margin-left: 0in; text-align: left; direction: ltr; unicode-bidi: embed; word-break: normal;&quot;&gt;&lt;span style=&quot;font-size: 18pt; font-family: 等线; color: black;&quot;&gt;presented&lt;/span&gt;&lt;/p&gt;&lt;/td&gt;&lt;td class=&quot;oa1&quot; width=&quot;104&quot; style=&quot;padding: 3.6pt 7.2pt; color: windowtext; font-size: 18pt; font-weight: 400; font-style: normal; text-decoration: none; font-family: Arial; vertical-align: top; border: 1pt solid black; width: 78pt;&quot;&gt;&lt;p style=&quot;margin-top: 0pt; margin-bottom: 0pt; margin-left: 0in; text-align: left; direction: ltr; unicode-bidi: embed; word-break: normal;&quot;&gt;&lt;span style=&quot;font-size: 18pt; font-family: 等线; color: black;&quot;&gt;30000&lt;/span&gt;&lt;/p&gt;&lt;/td&gt;&lt;td class=&quot;oa1&quot; width=&quot;158&quot; style=&quot;padding: 3.6pt 7.2pt; color: windowtext; font-size: 18pt; font-weight: 400; font-style: normal; text-decoration: none; font-family: Arial; vertical-align: top; border: 1pt solid black; width: 118pt;&quot;&gt;&lt;p style=&quot;margin-top: 0pt; margin-bottom: 0pt; margin-left: 0in; text-align: left; direction: ltr; unicode-bidi: embed; word-break: normal;&quot;&gt;&lt;span style=&quot;font-size: 18pt; font-family: 等线; color: black;&quot;&gt;0&lt;/span&gt;&lt;/p&gt;&lt;/td&gt;&lt;td class=&quot;oa1&quot; width=&quot;109&quot; style=&quot;padding: 3.6pt 7.2pt; color: windowtext; font-size: 18pt; font-weight: 400; font-style: normal; text-decoration: none; font-family: Arial; vertical-align: top; border: 1pt solid black; width: 81pt;&quot;&gt;&lt;p style=&quot;margin-top: 0pt; margin-bottom: 0pt; margin-left: 0in; text-align: left; direction: ltr; unicode-bidi: embed; word-break: normal;&quot;&gt;&lt;span style=&quot;font-size: 18pt; font-family: 等线; color: black;&quot;&gt;0&lt;/span&gt;&lt;/p&gt;&lt;/td&gt;&lt;td class=&quot;oa1&quot; width=&quot;122&quot; style=&quot;padding: 3.6pt 7.2pt; color: windowtext; font-size: 18pt; font-weight: 400; font-style: normal; text-decoration: none; font-family: Arial; vertical-align: top; border: 1pt solid black; width: 91pt;&quot;&gt;&lt;p style=&quot;margin-top: 0pt; margin-bottom: 0pt; margin-left: 0in; text-align: left; direction: ltr; unicode-bidi: embed; word-break: normal;&quot;&gt;&lt;span style=&quot;font-size: 18pt; font-family: 等线; color: black;&quot;&gt;20000&lt;/span&gt;&lt;/p&gt;&lt;/td&gt;&lt;td class=&quot;oa1&quot; width=&quot;122&quot; style=&quot;padding: 3.6pt 7.2pt; color: windowtext; font-size: 18pt; font-weight: 400; font-style: normal; text-decoration: none; font-family: Arial; vertical-align: top; border: 1pt solid black; width: 91pt;&quot;&gt;&lt;p style=&quot;margin-top: 0pt; margin-bottom: 0pt; margin-left: 0in; text-align: left; direction: ltr; unicode-bidi: embed; word-break: normal;&quot;&gt;&lt;span style=&quot;font-size: 18pt; font-family: 等线; color: black;&quot;&gt;50000&lt;/span&gt;&lt;/p&gt;&lt;/td&gt;&lt;/tr&gt;&lt;tr height=&quot;39&quot; style=&quot;height: 29.2pt;&quot;&gt;&lt;td height=&quot;39&quot; class=&quot;oa1&quot; width=&quot;128&quot; style=&quot;padding: 3.6pt 7.2pt; color: windowtext; font-size: 18pt; font-weight: 400; font-style: normal; text-decoration: none; font-family: Arial; vertical-align: top; border: 1pt solid black; height: 29.2pt; width: 96pt;&quot;&gt;&lt;p style=&quot;margin-top: 0pt; margin-bottom: 0pt; margin-left: 0in; text-align: left; direction: ltr; unicode-bidi: embed; word-break: normal;&quot;&gt;&lt;span style=&quot;font-size: 18pt; font-family: 等线; color: black;&quot;&gt;won&lt;/span&gt;&lt;/p&gt;&lt;/td&gt;&lt;td class=&quot;oa1&quot; width=&quot;104&quot; style=&quot;padding: 3.6pt 7.2pt; color: windowtext; font-size: 18pt; font-weight: 400; font-style: normal; text-decoration: none; font-family: Arial; vertical-align: top; border: 1pt solid black; width: 78pt;&quot;&gt;&lt;p style=&quot;margin-top: 0pt; margin-bottom: 0pt; margin-left: 0in; text-align: left; direction: ltr; unicode-bidi: embed; word-break: normal;&quot;&gt;&lt;span style=&quot;font-size: 18pt; font-family: 等线; color: black;&quot;&gt;65000&lt;/span&gt;&lt;/p&gt;&lt;/td&gt;&lt;td class=&quot;oa1&quot; width=&quot;158&quot; style=&quot;padding: 3.6pt 7.2pt; color: windowtext; font-size: 18pt; font-weight: 400; font-style: normal; text-decoration: none; font-family: Arial; vertical-align: top; border: 1pt solid black; width: 118pt;&quot;&gt;&lt;p style=&quot;margin-top: 0pt; margin-bottom: 0pt; margin-left: 0in; text-align: left; direction: ltr; unicode-bidi: embed; word-break: normal;&quot;&gt;&lt;span style=&quot;font-size: 18pt; font-family: 等线; color: black;&quot;&gt;0&lt;/span&gt;&lt;/p&gt;&lt;/td&gt;&lt;td class=&quot;oa1&quot; width=&quot;109&quot; style=&quot;padding: 3.6pt 7.2pt; color: windowtext; font-size: 18pt; font-weight: 400; font-style: normal; text-decoration: none; font-family: Arial; vertical-align: top; border: 1pt solid black; width: 81pt;&quot;&gt;&lt;p style=&quot;margin-top: 0pt; margin-bottom: 0pt; margin-left: 0in; text-align: left; direction: ltr; unicode-bidi: embed; word-break: normal;&quot;&gt;&lt;span style=&quot;font-size: 18pt; font-family: 等线; color: black;&quot;&gt;0&lt;/span&gt;&lt;/p&gt;&lt;/td&gt;&lt;td class=&quot;oa1&quot; width=&quot;122&quot; style=&quot;padding: 3.6pt 7.2pt; color: windowtext; font-size: 18pt; font-weight: 400; font-style: normal; text-decoration: none; font-family: Arial; vertical-align: top; border: 1pt solid black; width: 91pt;&quot;&gt;&lt;p style=&quot;margin-top: 0pt; margin-bottom: 0pt; margin-left: 0in; text-align: left; direction: ltr; unicode-bidi: embed; word-break: normal;&quot;&gt;&lt;span style=&quot;font-size: 18pt; font-family: 等线; color: black;&quot;&gt;0&lt;/span&gt;&lt;/p&gt;&lt;/td&gt;&lt;td class=&quot;oa1&quot; width=&quot;122&quot; style=&quot;padding: 3.6pt 7.2pt; color: windowtext; font-size: 18pt; font-weight: 400; font-style: normal; text-decoration: none; font-family: Arial; vertical-align: top; border: 1pt solid black; width: 91pt;&quot;&gt;&lt;p style=&quot;margin-top: 0pt; margin-bottom: 0pt; margin-left: 0in; text-align: left; direction: ltr; unicode-bidi: embed; word-break: normal;&quot;&gt;&lt;span style=&quot;font-size: 18pt; font-family: 等线; color: black;&quot;&gt;65000&lt;/span&gt;&lt;/p&gt;&lt;/td&gt;&lt;/tr&gt;&lt;/tbody&gt;&lt;/table&gt;" style="text;whiteSpace=wrap;html=1;" vertex="1" parent="1">
          <mxGeometry x="395" y="590" width="860" height="370" as="geometry" />
        </mxCell>
        <mxCell id="cUyVVVKYGetLILxytOfe-106" value="" style="shape=flexArrow;endArrow=classic;html=1;rounded=0;exitX=0.5;exitY=1;exitDx=0;exitDy=0;strokeColor=#171717;" edge="1" parent="1" source="cUyVVVKYGetLILxytOfe-98">
          <mxGeometry width="50" height="50" relative="1" as="geometry">
            <mxPoint x="750" y="480" as="sourcePoint" />
            <mxPoint x="825" y="590" as="targetPoint" />
          </mxGeometry>
        </mxCell>
      </root>
    </mxGraphModel>
  </diagram>
</mxfile>
